<svg id="dropout" xmlns="http://www.w3.org/2000/svg" viewBox="0 0 600 600">
  <title>dropout_reg_2</title>
  <g id="static">
    <g id="meter">
      <line x1="104.95" y1="454.85" x2="129" y2="454.85" fill="none" stroke="#c9c9c9" stroke-linecap="round" stroke-miterlimit="10" stroke-width="2"/>
      <line x1="129" y1="79.85" x2="104.95" y2="79.85" fill="none" stroke="#c9c9c9" stroke-linecap="round" stroke-miterlimit="10" stroke-width="2"/>
      <line x1="104.95" y1="176.01" x2="129" y2="176.01" fill="none" stroke="#c9c9c9" stroke-linecap="round" stroke-miterlimit="10" stroke-width="2"/>
      <line x1="104.95" y1="278.01" x2="129" y2="278.01" fill="none" stroke="#c9c9c9" stroke-linecap="round" stroke-miterlimit="10" stroke-width="2"/>
      <line x1="104.95" y1="365.01" x2="129" y2="365.01" fill="none" stroke="#c9c9c9" stroke-linecap="round" stroke-miterlimit="10" stroke-width="2"/>
      <text transform="translate(137.41 83.38)" font-size="12" fill="#b5b5b5" font-family="Roboto-Regular, Roboto" style="isolation: isolate">1.00</text>
      <text transform="translate(137.41 282.01)" font-size="12" fill="#b5b5b5" font-family="Roboto-Regular, Roboto" style="isolation: isolate">0.50</text>
      <text transform="translate(137.41 458.38)" font-size="12" fill="#b5b5b5" font-family="Roboto-Regular, Roboto" style="isolation: isolate">0.05</text>
      <text transform="translate(85.24 325) rotate(-90)" font-size="16" fill="#b5b5b5" font-family="Roboto-Regular, Roboto" style="isolation: isolate"><tspan letter-spacing="-0.01em">K</tspan><tspan x="9.83" y="0">eep P</tspan><tspan x="49.81" y="0" letter-spacing="-0.01em">r</tspan><tspan x="55.07" y="0">obability</tspan></text>
    </g>
    <g id="layer_labels" data-name="layer labels">
      <text transform="translate(228.73 518.05)" font-size="12" fill="#b5b5b5" font-family="Roboto-Regular, Roboto" style="isolation: isolate">l<tspan x="2.91" y="0" letter-spacing="-0.01em">a</tspan><tspan x="9.35" y="0" letter-spacing="-0.01em">y</tspan><tspan x="14.95" y="0">er l-1</tspan></text>
      <text transform="translate(367.5 518.05)" font-size="12" fill="#b5b5b5" font-family="Roboto-Regular, Roboto" style="isolation: isolate">l<tspan x="2.91" y="0" letter-spacing="-0.01em">a</tspan><tspan x="9.35" y="0" letter-spacing="-0.01em">y</tspan><tspan x="14.95" y="0">er l</tspan></text>
      <text transform="translate(494.4 518.05)" font-size="12" fill="#b5b5b5" font-family="Roboto-Regular, Roboto" style="isolation: isolate">l<tspan x="2.91" y="0" letter-spacing="-0.01em">a</tspan><tspan x="9.35" y="0" letter-spacing="-0.01em">y</tspan><tspan x="14.95" y="0">er l+1</tspan></text>
    </g>
  </g>
  <g id="pause_button" data-name="pause button">
    <path d="M117,498.1h0a16.44,16.44,0,0,1,16.44,16.44h0A16.44,16.44,0,0,1,117,531h0a16.45,16.45,0,0,1-16.45-16.45h0A16.45,16.45,0,0,1,117,498.1Z" fill="#636363"/>
    <rect x="111.53" y="507.18" width="3.88" height="14.72" rx="1.62" fill="#fff"/>
    <rect x="118.53" y="507.18" width="3.88" height="14.72" rx="1.62" fill="#fff"/>
  </g>
  <g id="play_button" data-name="play button">
    <path d="M117,498.1h0a16.44,16.44,0,0,1,16.44,16.44h0A16.44,16.44,0,0,1,117,531h0a16.45,16.45,0,0,1-16.45-16.45h0A16.45,16.45,0,0,1,117,498.1Z" fill="#636363"/>
    <path d="M112.52,508.34v12.4a1.16,1.16,0,0,0,1.15,1.16,1.21,1.21,0,0,0,.58-.16l10.74-6.2a1.14,1.14,0,0,0,.43-1.57,1.11,1.11,0,0,0-.43-.43l-10.74-6.2a1.14,1.14,0,0,0-1.57.41A1.21,1.21,0,0,0,112.52,508.34Z" fill="#fff"/>
  </g>
  <line id="prog_bar" data-name="prog bar" x1="116.97" y1="454.85" x2="116.97" y2="79.85" fill="none" stroke="#c9c9c9" stroke-miterlimit="10" stroke-width="5"/>
  <circle id="dot" cx="116.97" cy="454.85" r="9" fill="#636363"/>
  <g id="net">
    <g id="drop_6" data-name="drop 6">
      <line x1="400.91" y1="459.11" x2="516.79" y2="407.58" fill="none" stroke="#ff7c43" stroke-linecap="round" stroke-linejoin="round"/>
      <line x1="396.4" y1="453.85" x2="516.79" y2="345.38" fill="none" stroke="#ff7c43" stroke-linecap="round" stroke-linejoin="round"/>
      <line x1="393.2" y1="451.66" x2="516.79" y2="283.18" fill="none" stroke="#ff7c43" stroke-linecap="round" stroke-linejoin="round"/>
      <line x1="391.11" y1="450.64" x2="516.79" y2="220.98" fill="none" stroke="#ff7c43" stroke-linecap="round" stroke-linejoin="round"/>
      <line x1="389.69" y1="450.11" x2="516.79" y2="158.79" fill="none" stroke="#ff7c43" stroke-linecap="round" stroke-linejoin="round"/>
      <line x1="377.11" y1="449.94" x2="249.46" y2="127.69" fill="none" stroke="#d45087" stroke-linecap="round" stroke-linejoin="round"/>
      <line x1="375.93" y1="450.34" x2="249.46" y2="189.88" fill="none" stroke="#d45087" stroke-linecap="round" stroke-linejoin="round"/>
      <line x1="374.21" y1="451.06" x2="249.46" y2="252.08" fill="none" stroke="#d45087" stroke-linecap="round" stroke-linejoin="round"/>
      <line x1="371.63" y1="452.53" x2="249.46" y2="314.28" fill="none" stroke="#d45087" stroke-linecap="round" stroke-linejoin="round"/>
      <line x1="367.72" y1="455.91" x2="249.46" y2="376.48" fill="none" stroke="#d45087" stroke-linecap="round" stroke-linejoin="round"/>
      <line x1="363.27" y1="463.82" x2="249.46" y2="438.68" fill="none" stroke="#d45087" stroke-linecap="round" stroke-linejoin="round"/>
      <circle cx="383.13" cy="469.78" r="20.73" fill="#fff" stroke="#f95d6a" stroke-linecap="round" stroke-linejoin="round" stroke-width="3"/>
    </g>
    <g id="drop_5" data-name="drop 5">
      <line x1="403.86" y1="407.58" x2="516.79" y2="407.58" fill="none" stroke="#ff7c43" stroke-linecap="round" stroke-linejoin="round"/>
      <line x1="400.91" y1="396.91" x2="516.79" y2="345.38" fill="none" stroke="#ff7c43" stroke-linecap="round" stroke-linejoin="round"/>
      <line x1="396.4" y1="391.66" x2="516.79" y2="283.18" fill="none" stroke="#ff7c43" stroke-linecap="round" stroke-linejoin="round"/>
      <line x1="393.2" y1="389.46" x2="516.79" y2="220.98" fill="none" stroke="#ff7c43" stroke-linecap="round" stroke-linejoin="round"/>
      <line x1="391.1" y1="388.44" x2="516.79" y2="158.79" fill="none" stroke="#ff7c43" stroke-linecap="round" stroke-linejoin="round"/>
      <line x1="375.93" y1="388.14" x2="249.46" y2="127.69" fill="none" stroke="#d45087" stroke-linecap="round" stroke-linejoin="round"/>
      <line x1="374.21" y1="388.86" x2="249.46" y2="189.88" fill="none" stroke="#d45087" stroke-linecap="round" stroke-linejoin="round"/>
      <line x1="371.63" y1="390.33" x2="249.46" y2="252.08" fill="none" stroke="#d45087" stroke-linecap="round" stroke-linejoin="round"/>
      <line x1="367.72" y1="393.71" x2="249.46" y2="314.28" fill="none" stroke="#d45087" stroke-linecap="round" stroke-linejoin="round"/>
      <line x1="363.27" y1="401.62" x2="249.46" y2="376.48" fill="none" stroke="#d45087" stroke-linecap="round" stroke-linejoin="round"/>
      <line x1="363.27" y1="413.54" x2="249.46" y2="438.68" fill="none" stroke="#d45087" stroke-linecap="round" stroke-linejoin="round"/>
      <circle cx="383.13" cy="407.58" r="20.73" fill="#fff" stroke="#f95d6a" stroke-linecap="round" stroke-linejoin="round" stroke-width="3"/>
    </g>
    <g id="drop_4" data-name="drop 4">
      <line x1="403.86" y1="345.38" x2="516.79" y2="345.38" fill="none" stroke="#ff7c43" stroke-linecap="round" stroke-linejoin="round"/>
      <line x1="400.91" y1="334.71" x2="516.79" y2="283.18" fill="none" stroke="#ff7c43" stroke-linecap="round" stroke-linejoin="round"/>
      <line x1="396.4" y1="329.46" x2="516.79" y2="220.98" fill="none" stroke="#ff7c43" stroke-linecap="round" stroke-linejoin="round"/>
      <line x1="393.2" y1="327.26" x2="516.79" y2="158.79" fill="none" stroke="#ff7c43" stroke-linecap="round" stroke-linejoin="round"/>
      <line x1="400.91" y1="356.05" x2="516.79" y2="407.58" fill="none" stroke="#ff7c43" stroke-linecap="round" stroke-linejoin="round"/>
      <line x1="367.72" y1="359.25" x2="249.46" y2="438.68" fill="none" stroke="#d45087" stroke-linecap="round" stroke-linejoin="round"/>
      <line x1="374.21" y1="326.66" x2="249.46" y2="127.69" fill="none" stroke="#d45087" stroke-linecap="round" stroke-linejoin="round"/>
      <line x1="371.63" y1="328.13" x2="249.46" y2="189.88" fill="none" stroke="#d45087" stroke-linecap="round" stroke-linejoin="round"/>
      <line x1="367.72" y1="331.51" x2="249.46" y2="252.08" fill="none" stroke="#d45087" stroke-linecap="round" stroke-linejoin="round"/>
      <line x1="363.27" y1="339.42" x2="249.46" y2="314.28" fill="none" stroke="#d45087" stroke-linecap="round" stroke-linejoin="round"/>
      <line x1="363.27" y1="351.34" x2="249.46" y2="376.48" fill="none" stroke="#d45087" stroke-linecap="round" stroke-linejoin="round"/>
      <circle cx="383.13" cy="345.38" r="20.73" fill="#fff" stroke="#f95d6a" stroke-linecap="round" stroke-linejoin="round" stroke-width="3"/>
    </g>
    <g id="drop_3" data-name="drop 3">
      <line x1="403.86" y1="283.18" x2="516.79" y2="283.18" fill="none" stroke="#ff7c43" stroke-linecap="round" stroke-linejoin="round"/>
      <line x1="400.91" y1="272.52" x2="516.79" y2="220.98" fill="none" stroke="#ff7c43" stroke-linecap="round" stroke-linejoin="round"/>
      <line x1="396.4" y1="267.26" x2="516.79" y2="158.79" fill="none" stroke="#ff7c43" stroke-linecap="round" stroke-linejoin="round"/>
      <line x1="396.4" y1="299.11" x2="516.79" y2="407.58" fill="none" stroke="#ff7c43" stroke-linecap="round" stroke-linejoin="round"/>
      <line x1="400.91" y1="293.85" x2="516.79" y2="345.38" fill="none" stroke="#ff7c43" stroke-linecap="round" stroke-linejoin="round"/>
      <line x1="371.63" y1="300.44" x2="249.46" y2="438.68" fill="none" stroke="#d45087" stroke-linecap="round" stroke-linejoin="round"/>
      <line x1="367.72" y1="297.05" x2="249.46" y2="376.48" fill="none" stroke="#d45087" stroke-linecap="round" stroke-linejoin="round"/>
      <line x1="371.63" y1="265.93" x2="249.46" y2="127.69" fill="none" stroke="#d45087" stroke-linecap="round" stroke-linejoin="round"/>
      <line x1="367.72" y1="269.32" x2="249.46" y2="189.88" fill="none" stroke="#d45087" stroke-linecap="round" stroke-linejoin="round"/>
      <line x1="363.27" y1="277.23" x2="249.46" y2="252.08" fill="none" stroke="#d45087" stroke-linecap="round" stroke-linejoin="round"/>
      <line x1="363.27" y1="289.14" x2="249.46" y2="314.28" fill="none" stroke="#d45087" stroke-linecap="round" stroke-linejoin="round"/>
      <circle cx="383.13" cy="283.18" r="20.73" fill="#fff" stroke="#f95d6a" stroke-linecap="round" stroke-linejoin="round" stroke-width="3"/>
    </g>
    <g id="drop_2" data-name="drop 2">
      <line x1="403.86" y1="220.98" x2="516.79" y2="220.98" fill="none" stroke="#ff7c43" stroke-linecap="round" stroke-linejoin="round"/>
      <line x1="400.9" y1="210.32" x2="516.79" y2="158.79" fill="none" stroke="#ff7c43" stroke-linecap="round" stroke-linejoin="round"/>
      <line x1="393.2" y1="239.11" x2="516.79" y2="407.58" fill="none" stroke="#ff7c43" stroke-linecap="round" stroke-linejoin="round"/>
      <line x1="396.4" y1="236.91" x2="516.79" y2="345.38" fill="none" stroke="#ff7c43" stroke-linecap="round" stroke-linejoin="round"/>
      <line x1="400.91" y1="231.65" x2="516.79" y2="283.18" fill="none" stroke="#ff7c43" stroke-linecap="round" stroke-linejoin="round"/>
      <line x1="374.21" y1="239.71" x2="249.46" y2="438.68" fill="none" stroke="#d45087" stroke-linecap="round" stroke-linejoin="round"/>
      <line x1="371.63" y1="238.24" x2="249.46" y2="376.48" fill="none" stroke="#d45087" stroke-linecap="round" stroke-linejoin="round"/>
      <line x1="367.72" y1="234.85" x2="249.46" y2="314.28" fill="none" stroke="#d45087" stroke-linecap="round" stroke-linejoin="round"/>
      <line x1="367.72" y1="207.12" x2="249.46" y2="127.69" fill="none" stroke="#d45087" stroke-linecap="round" stroke-linejoin="round"/>
      <line x1="363.27" y1="215.03" x2="249.46" y2="189.88" fill="none" stroke="#d45087" stroke-linecap="round" stroke-linejoin="round"/>
      <line x1="363.27" y1="226.94" x2="249.46" y2="252.08" fill="none" stroke="#d45087" stroke-linecap="round" stroke-linejoin="round"/>
      <circle cx="383.13" cy="220.98" r="20.73" fill="#fff" stroke="#f95d6a" stroke-linecap="round" stroke-linejoin="round" stroke-width="3"/>
    </g>
    <g id="drop_0" data-name="drop 0">
      <circle cx="383.13" cy="95.7" r="20.73" fill="#fff" stroke="#f95d6a" stroke-linecap="round" stroke-linejoin="round" stroke-width="3"/>
      <line x1="389.69" y1="116.26" x2="516.79" y2="407.58" fill="none" stroke="#ff7c43" stroke-linecap="round" stroke-linejoin="round"/>
      <line x1="391.11" y1="115.73" x2="516.79" y2="345.38" fill="none" stroke="#ff7c43" stroke-linecap="round" stroke-linejoin="round"/>
      <line x1="393.2" y1="114.71" x2="516.79" y2="283.18" fill="none" stroke="#ff7c43" stroke-linecap="round" stroke-linejoin="round"/>
      <line x1="396.4" y1="112.51" x2="516.79" y2="220.98" fill="none" stroke="#ff7c43" stroke-linecap="round" stroke-linejoin="round"/>
      <line x1="400.91" y1="107.25" x2="516.79" y2="158.79" fill="none" stroke="#ff7c43" stroke-linecap="round" stroke-linejoin="round"/>
      <line x1="377.12" y1="116.43" x2="249.46" y2="438.68" fill="none" stroke="#d45087" stroke-linecap="round" stroke-linejoin="round"/>
      <line x1="375.93" y1="116.03" x2="249.46" y2="376.48" fill="none" stroke="#d45087" stroke-linecap="round" stroke-linejoin="round"/>
      <line x1="374.22" y1="115.3" x2="249.46" y2="314.28" fill="none" stroke="#d45087" stroke-linecap="round" stroke-linejoin="round"/>
      <line x1="371.63" y1="113.84" x2="249.46" y2="252.08" fill="none" stroke="#d45087" stroke-linecap="round" stroke-linejoin="round"/>
      <line x1="367.72" y1="110.45" x2="249.46" y2="189.88" fill="none" stroke="#d45087" stroke-linecap="round" stroke-linejoin="round"/>
      <line x1="363.27" y1="102.54" x2="249.46" y2="127.69" fill="none" stroke="#d45087" stroke-linecap="round" stroke-linejoin="round"/>
    </g>
    <g id="drop_1" data-name="drop 1">
      <line x1="403.86" y1="158.79" x2="516.79" y2="158.79" fill="none" stroke="#ff7c43" stroke-linecap="round" stroke-linejoin="round"/>
      <line x1="391.1" y1="177.93" x2="516.79" y2="407.58" fill="none" stroke="#ff7c43" stroke-linecap="round" stroke-linejoin="round"/>
      <line x1="393.2" y1="176.91" x2="516.79" y2="345.38" fill="none" stroke="#ff7c43" stroke-linecap="round" stroke-linejoin="round"/>
      <line x1="396.4" y1="174.71" x2="516.79" y2="283.18" fill="none" stroke="#ff7c43" stroke-linecap="round" stroke-linejoin="round"/>
      <line x1="400.91" y1="169.45" x2="516.79" y2="220.98" fill="none" stroke="#ff7c43" stroke-linecap="round" stroke-linejoin="round"/>
      <line x1="375.93" y1="178.23" x2="249.46" y2="438.68" fill="none" stroke="#d45087" stroke-linecap="round" stroke-linejoin="round"/>
      <line x1="374.21" y1="177.51" x2="249.46" y2="376.48" fill="none" stroke="#d45087" stroke-linecap="round" stroke-linejoin="round"/>
      <line x1="371.63" y1="176.04" x2="249.46" y2="314.28" fill="none" stroke="#d45087" stroke-linecap="round" stroke-linejoin="round"/>
      <line x1="367.72" y1="172.65" x2="249.46" y2="252.08" fill="none" stroke="#d45087" stroke-linecap="round" stroke-linejoin="round"/>
      <line x1="363.27" y1="152.83" x2="249.46" y2="127.69" fill="none" stroke="#d45087" stroke-linecap="round" stroke-linejoin="round"/>
      <line x1="363.27" y1="164.74" x2="249.46" y2="189.88" fill="none" stroke="#d45087" stroke-linecap="round" stroke-linejoin="round"/>
      <circle cx="383.13" cy="158.79" r="20.73" fill="#fff" stroke="#f95d6a" stroke-linecap="round" stroke-linejoin="round" stroke-width="3"/>
    </g>
    <g id="outputs">
      <circle cx="516.79" cy="158.79" r="20.73" fill="#fff" stroke="#ffa600" stroke-linecap="round" stroke-linejoin="round" stroke-width="3"/>
      <circle cx="516.79" cy="220.98" r="20.73" fill="#fff" stroke="#ffa600" stroke-linecap="round" stroke-linejoin="round" stroke-width="3"/>
      <circle cx="516.79" cy="283.18" r="20.73" fill="#fff" stroke="#ffa600" stroke-linecap="round" stroke-linejoin="round" stroke-width="3"/>
      <circle cx="516.79" cy="345.38" r="20.73" fill="#fff" stroke="#ffa600" stroke-linecap="round" stroke-linejoin="round" stroke-width="3"/>
      <circle cx="516.79" cy="407.58" r="20.73" fill="#fff" stroke="#ffa600" stroke-linecap="round" stroke-linejoin="round" stroke-width="3"/>
    </g>
    <g id="inputs">
      <circle cx="249.46" cy="438.68" r="20.73" fill="#fff" stroke="#a05195" stroke-linecap="round" stroke-linejoin="round" stroke-width="3"/>
      <circle cx="249.46" cy="376.48" r="20.73" fill="#fff" stroke="#a05195" stroke-linecap="round" stroke-linejoin="round" stroke-width="3"/>
      <circle cx="249.46" cy="314.28" r="20.73" fill="#fff" stroke="#a05195" stroke-linecap="round" stroke-linejoin="round" stroke-width="3"/>
      <circle cx="249.46" cy="252.08" r="20.73" fill="#fff" stroke="#a05195" stroke-linecap="round" stroke-linejoin="round" stroke-width="3"/>
      <circle cx="249.46" cy="189.88" r="20.73" transform="translate(22.08 405.71) rotate(-80.78)" fill="#fff" stroke="#a05195" stroke-linecap="round" stroke-linejoin="round" stroke-width="3"/>
      <circle cx="249.46" cy="127.69" r="20.73" transform="translate(83.46 353.48) rotate(-80.78)" fill="#fff" stroke="#a05195" stroke-linecap="round" stroke-linejoin="round" stroke-width="3"/>
    </g>
  </g>
  <g id="iter_group" data-name="iter group">
    <text id="iteration_text" data-name="iteration text" transform="translate(218.84 83.38)" font-size="12" font-family="ArialMT, Arial" style="isolation: isolate">Starting</text>
    <rect id="iter_light" data-name="iter light" x="212.84" y="69.01" width="73" height="20" rx="8.49" fill="none" stroke="#f95d6a" stroke-linecap="round" stroke-linejoin="round" stroke-width="2"/>
  </g>
  <g id="slide_box" data-name="slide box">
    <rect id="box_drop" x="60.8" y="444.38" width="40" height="22" rx="9.23" fill="#fff" stroke="#000" stroke-linecap="round" stroke-linejoin="round"/>
    <text id="box_text" data-name="box text" transform="translate(66.84 461.01)" font-size="12" font-family="ArialMT, Arial" style="isolation: isolate">0.01</text>
  </g>
</svg>
